<svg height="512pt" viewBox="0 0 512 512" width="512pt" xmlns="http://www.w3.org/2000/svg"><path d="m256 0c-141.386719 0-256 114.613281-256 256s114.613281 256 256 256 256-114.613281 256-256c-.160156-141.320312-114.679688-255.839844-256-256zm0 17.066406c128.5625.164063 233.996094 101.925782 238.71875 230.398438h-128.21875c-4.375-57.796875-52.546875-102.460938-110.507812-102.460938-57.964844 0-106.136719 44.664063-110.507813 102.460938h-128.203125c4.722656-128.472656 110.15625-230.234375 238.71875-230.398438zm93.867188 238.933594c0 51.839844-42.027344 93.867188-93.867188 93.867188s-93.867188-42.027344-93.867188-93.867188 42.027344-93.867188 93.867188-93.867188c51.816406.0625 93.804688 42.050782 93.867188 93.867188zm-93.867188 238.933594c-128.5625-.164063-233.996094-101.925782-238.71875-230.398438h128.21875c4.375 57.796875 52.546875 102.460938 110.507812 102.460938 57.964844 0 106.136719-44.664063 110.507813-102.460938h128.203125c-4.722656 128.472656-110.15625 230.234375-238.71875 230.398438zm0 0"/><path d="m442.699219 359.65625c-4.019531-2.453125-9.265625-1.1875-11.722657 2.832031-13.566406 22.25-31.246093 41.714844-52.097656 57.351563-3.769531 2.828125-4.535156 8.175781-1.707031 11.945312 2.828125 3.773438 8.179687 4.535156 11.949219 1.707032 22.578125-16.921876 41.71875-38.003907 56.394531-62.105469 2.464844-4.015625 1.203125-9.269531-2.816406-11.730469zm0 0"/><path d="m145.066406 82.277344c1.566406.003906 3.105469-.429688 4.4375-1.253906 15.296875-9.335938 31.761719-16.609376 48.964844-21.632813 2.992188-.792969 5.320312-3.144531 6.082031-6.148437.761719-3-.160156-6.179688-2.414062-8.304688-2.25-2.125-5.476563-2.863281-8.429688-1.929688-18.640625 5.453126-36.480469 13.339844-53.0625 23.449219-3.261719 1.988281-4.804687 5.902344-3.777343 9.585938 1.027343 3.679687 4.378906 6.226562 8.199218 6.234375zm0 0"/><path d="m69.300781 152.355469c4.019531 2.449219 9.269531 1.179687 11.722657-2.84375 7.84375-12.851563 17.070312-24.804688 27.519531-35.644531 3.125-3.414063 2.957031-8.695313-.375-11.90625-3.332031-3.207032-8.617188-3.175782-11.910157.070312-11.316406 11.738281-21.308593 24.675781-29.800781 38.589844-2.457031 4.023437-1.183593 9.277344 2.84375 11.734375zm0 0"/><path d="m256 179.199219c-42.414062 0-76.800781 34.386719-76.800781 76.800781s34.386719 76.800781 76.800781 76.800781 76.800781-34.386719 76.800781-76.800781c-.046875-42.394531-34.40625-76.753906-76.800781-76.800781zm0 136.535156c-32.988281 0-59.734375-26.746094-59.734375-59.734375s26.746094-59.734375 59.734375-59.734375 59.734375 26.746094 59.734375 59.734375c-.039063 32.972656-26.761719 59.695312-59.734375 59.734375zm0 0"/><path d="m256 230.398438c-14.136719 0-25.601562 11.464843-25.601562 25.601562s11.464843 25.601562 25.601562 25.601562 25.601562-11.464843 25.601562-25.601562-11.464843-25.601562-25.601562-25.601562zm0 34.136718c-4.710938 0-8.535156-3.824218-8.535156-8.535156s3.824218-8.535156 8.535156-8.535156 8.535156 3.824218 8.535156 8.535156-3.824218 8.535156-8.535156 8.535156zm0 0"/></svg>